<svg xmlns="http://www.w3.org/2000/svg" width="1000" height="1000"><rect width="1000" height="1000" rx="250" ry="250" fill="#c85f5f"/><svg xmlns="http://www.w3.org/2000/svg" xmlns:xlink="http://www.w3.org/1999/xlink" xmlns:svgjs="http://svgjs.com/svgjs" width="576" height="512" transform="matrix(1.38889 0 0 1.38889 100 144.444)"><svg xmlns="http://www.w3.org/2000/svg" viewBox="0 0 576 512"><!--! Font Awesome Pro 6.0.0 by @fontawesome - https://fontawesome.com License - https://fontawesome.com/license (Commercial License) Copyright 2022 Fonticons, Inc.--><path d="M0 80c0-26.51 21.49-48 48-48h96c26.5 0 48 21.49 48 48v16h192V80c0-26.51 21.5-48 48-48h96c26.5 0 48 21.49 48 48v96c0 26.5-21.5 48-48 48h-96c-26.5 0-48-21.5-48-48v-16H192v16c0 1.7-.1 3.4-.3 4.1L272 288h96c26.5 0 48 21.5 48 48v96c0 26.5-21.5 48-48 48h-96c-26.5 0-48-21.5-48-48v-96c0-1.7.1-3.4.3-5L144 224H48c-26.51 0-48-21.5-48-48V80z"/></svg></svg></svg>